<svg xmlns="http://www.w3.org/2000/svg" width="200" height="171.89" viewBox="0 0 200 171.89"><path d="M185.761,263.558a25.956,25.956,0,0,0-19.674,9.551L88.269,365.864l-28.32-44.127a25.957,25.957,0,1,0-43.688,28.041l47.374,73.812a26.074,26.074,0,0,0,41.724,2.661L205.854,306.473l.014-.021a25.955,25.955,0,0,0-20.1-42.894h-.007Zm.16,9.433h.007a16.517,16.517,0,0,1,12.777,27.31l-.042.056L98.126,420.191a16.4,16.4,0,0,1-26.55-1.7L24.2,344.679a16.518,16.518,0,0,1,27.8-17.842l31.782,49.526a4.719,4.719,0,0,0,7.587.481l81.984-97.722.042-.049a16.518,16.518,0,0,1,12.519-6.082Z" transform="translate(-12.171 -263.554)"/></svg>